<svg xmlns="http://www.w3.org/2000/svg" xml:space="preserve" width="48" height="48" viewBox="0 0 2084 2084"><path fill="#192E39" d="M1382 2086H2.082V2.207h2083.586V2086H1382m-559.394-752.53-148.877-229.877H471.21c-2.14 11.862-1.611 598.698.415 605.565h203.383v-14.525c0-68.321-.024-136.642.077-204.964.005-3.609-1.395-7.738 2.18-11.538l149.74 231.411h73.98c1.488-2.708 2.998-5.264 4.331-7.909 40.607-80.592 81.245-161.168 121.654-241.86 2.128-4.25 3.222-9.483 3.23-14.262.177-110.98.14-221.96.114-332.94 0-2.907-.33-5.814-.522-8.998h-204.13v11.297c0 53.991.023 107.981-.011 161.972-.012 18.992-.163 37.985-1.115 56.975 0 0-.784.368-1.93-.346m207.558-608.79c.461 2.622.886 5.251 1.39 7.866 21.173 109.816 83.496 186.717 186.058 230.576 19.12 8.177 39.692 13.33 59.99 18.242 11.408 2.76 23.618 2.297 35.48 3.066 23.703 1.535 47.222.021 70.632-4.075 128.762-22.527 234.506-129.346 248.452-269.2 3.066-30.754 1.099-61.158-5.162-91.105-32.467-155.301-180.389-263.515-345.053-237.168-85.137 13.622-152.73 57.23-201.689 128.191-44.05 63.845-59.76 134.998-50.098 213.606m-79.908 134c-21.626-45.332-34.459-93.194-37.764-143.148-2.374-35.87-1.524-71.836 5.114-107.537 14.562-78.319 48.14-147.08 101.381-206.294 3.337-3.711 6.912-7.355 9.487-11.572 4.707-7.71 1.276-13.541-7.675-13.876-1.664-.062-3.332-.022-4.999-.022-58.661 0-117.322-.008-175.983.005-13.92.004-13.955.038-13.958 13.685-.015 57.328-.006 114.656-.01 171.984 0 2.999-.086 5.999-.061 8.998.037 4.454-1.98 6.87-6.58 6.872-2.332.001-4.664.083-6.997.084-41.663.005-83.325.004-124.988 0-2 0-4.01.093-5.997-.083-5.79-.513-6.805-1.67-6.494-7.568.192-3.654.927-7.297.902-10.941-.385-57.304-.805-114.607-1.35-171.909-.102-10.79-.55-10.966-11.555-11.124-.666-.01-1.333-.003-2-.003-58.994 0-117.989-.009-176.983.006-13.718.004-13.752.04-13.752 13.865-.008 193.315-.008 386.63 0 579.946 0 13.76.037 13.795 13.805 13.798 59.327.014 118.655.006 177.983.004 2 0 4.006.077 5.998-.05 6.569-.417 7.568-1.193 7.81-7.655.275-7.323.155-14.663.092-21.995-.433-50.304-.9-100.608-1.344-150.912-.038-4.332-.157-8.673.054-12.996.34-6.97 1.198-7.702 8.433-8.07 1.663-.085 3.333-.033 5-.033 41.329-.002 82.658-.01 123.988.003 14.015.005 14.034.031 14.036 14.555.008 57.995-.008 115.99.012 173.984.005 13.115.055 13.16 13.457 13.163 59.328.018 118.656.008 177.983.004 2 0 4.012.093 5.997-.094 6.546-.618 8.586-4.564 5.026-10.241-1.933-3.083-4.378-5.896-6.879-8.562-29.21-31.15-52.394-66.34-71.189-106.27m654.848 789.272-67.118-135.168c-65.639-132.188-131.27-264.38-196.966-396.538-1.4-2.815-3.563-5.25-6.233-9.108l-303.985 603.846h605.44c-10.517-21.301-20.49-41.5-31.138-63.032z"></path><path fill="#EF476F" d="M1030.076 723.797c-9.575-77.725 6.137-148.878 50.186-212.723 48.96-70.96 116.552-114.569 201.689-128.191 164.664-26.347 312.586 81.867 345.053 237.168 6.26 29.947 8.228 60.351 5.162 91.104-13.946 139.855-119.69 246.674-248.452 269.201-23.41 4.096-46.93 5.61-70.631 4.075-11.863-.769-24.073-.306-35.481-3.066-20.298-4.913-40.87-10.065-59.99-18.242-102.562-43.86-164.885-120.76-186.058-230.576-.504-2.615-.929-5.244-1.478-8.75z"></path><path fill="#FFD166" d="M825.4 1333.819c.088-18.992.239-37.985.25-56.977.035-53.99.013-107.981.013-161.972v-11.297h204.129c.193 3.184.522 6.09.522 8.997.027 110.98.063 221.961-.114 332.941-.008 4.779-1.102 10.012-3.23 14.263-40.409 80.691-81.047 161.267-121.654 241.86-1.333 2.644-2.843 5.2-4.331 7.908h-73.98l-149.74-231.411c-3.575 3.8-2.175 7.93-2.18 11.538-.101 68.322-.076 136.643-.077 204.964v14.525H471.625c-2.026-6.867-2.555-593.703-.415-605.565h202.52c49.662 76.684 99.27 153.281 149.61 230.745 1.175.405 1.618-.057 2.06-.52z"></path><path fill="#26547C" d="M950.582 859.353c18.469 39.258 41.652 74.448 70.863 105.598 2.5 2.666 4.946 5.48 6.88 8.562 3.559 5.677 1.52 9.623-5.027 10.24-1.985.188-3.997.095-5.997.095-59.327.004-118.655.014-177.983-.004-13.402-.004-13.452-.048-13.457-13.163-.02-57.995-.004-115.99-.012-173.984-.002-14.524-.021-14.55-14.036-14.555-41.33-.013-82.66-.005-123.989-.003-1.666 0-3.336-.052-4.999.033-7.235.368-8.093 1.1-8.433 8.07-.211 4.323-.092 8.664-.054 12.996.444 50.304.91 100.608 1.344 150.912.063 7.332.183 14.672-.091 21.995-.243 6.462-1.242 7.238-7.811 7.656-1.992.126-3.998.05-5.998.05-59.328.001-118.656.009-177.983-.005-13.768-.003-13.804-.037-13.805-13.798-.008-193.315-.008-386.63 0-579.946 0-13.824.034-13.861 13.752-13.865 58.994-.015 117.989-.006 176.983-.006.667 0 1.334-.006 2 .003 11.005.158 11.453.334 11.556 11.124.544 57.302.964 114.605 1.35 171.909.024 3.644-.711 7.287-.903 10.941-.31 5.898.703 7.055 6.494 7.568 1.986.176 3.997.084 5.997.084 41.663.003 83.325.004 124.988-.001 2.333 0 4.665-.083 6.998-.084 4.599-.002 6.616-2.418 6.579-6.872-.025-3 .06-5.999.061-8.998.004-57.328-.005-114.656.01-171.984.003-13.647.039-13.681 13.958-13.685 58.66-.013 117.322-.006 175.983-.005 1.667 0 3.335-.04 5 .022 8.95.335 12.381 6.166 7.674 13.876-2.575 4.217-6.15 7.86-9.487 11.572-53.24 59.214-86.82 127.975-101.38 206.294-6.639 35.701-7.49 71.667-5.115 107.537 3.305 49.954 16.138 97.816 38.09 143.821z"></path><path fill="#06D6A0" d="M1605.44 1648.62a229452.57 229452.57 0 0 1 30.802 62.365h-605.44l303.985-603.846c2.67 3.859 4.834 6.293 6.233 9.108 65.697 132.158 131.327 264.35 196.966 396.538 22.372 45.056 44.745 90.112 67.455 135.834z"></path><path fill="#535744" d="M824.968 1333.818c-.01.463-.453.925-1.055.877-.16-.51.623-.878 1.055-.877z"></path></svg>